# xmcd
#
# Track frame offsets: 
#        150
#        11542
#        22306
#        37169
#        50188
#        59267
#        69799
#
# Disc length: 1151 seconds
#
# Revision: 1
# Processed by: cddbd v1.5.2PL0 Copyright (c) Steve Scherf et al.
# Submitted via: ExactAudioCopy v0.99pb4
#
DISCID=60047d07
DTITLE=The Sons of Many Bitches - Apparently Uninterested in a Life Of
DTITLE=Creative Growth Or Social Relevance
DYEAR=2008
DGENRE=Country
TTITLE0=Oakie from Muskogee
TTITLE1=Mama Tried
TTITLE2=Good Hearted Woman
TTITLE3=Whiskey River
TTITLE4=Where Eagles Dare
TTITLE5=Folsom Prison Blues
TTITLE6=Me and Bones
EXTD=
EXTT0=
EXTT1=
EXTT2=
EXTT3=
EXTT4=
EXTT5=
EXTT6=
PLAYORDER=
